<mxfile host="app.diagrams.net" modified="2020-11-20T19:09:26.805Z" agent="5.0 (Macintosh; Intel Mac OS X 10_15_2) AppleWebKit/537.36 (KHTML, like Gecko) Chrome/86.0.4240.183 Safari/537.36 OPR/72.0.3815.320" etag="UVCoUqaMCcShIP9LP0Sm" version="13.8.8" type="github">
  <diagram id="ZIjqRrrqUudWR3MNHGFB" name="Page-1">
    <mxGraphModel dx="2855" dy="1860" grid="1" gridSize="10" guides="1" tooltips="1" connect="1" arrows="1" fold="1" page="1" pageScale="1" pageWidth="827" pageHeight="1169" math="0" shadow="0">
      <root>
        <mxCell id="0" />
        <mxCell id="1" parent="0" />
        <mxCell id="5tydn42d7HWGj1WHtkxC-8" value="" style="rounded=0;whiteSpace=wrap;html=1;" vertex="1" parent="1">
          <mxGeometry x="-293" y="547.5" width="120" height="152.5" as="geometry" />
        </mxCell>
        <mxCell id="5tydn42d7HWGj1WHtkxC-2" value="" style="rounded=0;whiteSpace=wrap;html=1;" vertex="1" parent="1">
          <mxGeometry x="-658" y="370" width="295" height="510" as="geometry" />
        </mxCell>
        <mxCell id="5tydn42d7HWGj1WHtkxC-3" value="Sistema A (Distribuída)" style="text;html=1;strokeColor=none;fillColor=none;align=center;verticalAlign=middle;whiteSpace=wrap;rounded=0;fontStyle=1;fontSize=13;" vertex="1" parent="1">
          <mxGeometry x="-653" y="355" width="280" height="10" as="geometry" />
        </mxCell>
        <mxCell id="5tydn42d7HWGj1WHtkxC-6" value="" style="rounded=0;whiteSpace=wrap;html=1;" vertex="1" parent="1">
          <mxGeometry x="-88" y="370" width="335" height="580" as="geometry" />
        </mxCell>
        <mxCell id="5tydn42d7HWGj1WHtkxC-7" value="Sistema B (Mainframe)" style="text;html=1;strokeColor=none;fillColor=none;align=center;verticalAlign=middle;whiteSpace=wrap;rounded=0;fontStyle=1;fontSize=13;" vertex="1" parent="1">
          <mxGeometry x="-88" y="350" width="335" height="20" as="geometry" />
        </mxCell>
        <mxCell id="5tydn42d7HWGj1WHtkxC-9" value="Sistema C&lt;br style=&quot;font-size: 13px;&quot;&gt;(JavaWeb Server)" style="text;html=1;strokeColor=none;fillColor=none;align=center;verticalAlign=middle;whiteSpace=wrap;rounded=0;fontStyle=1;fontSize=13;" vertex="1" parent="1">
          <mxGeometry x="-293" y="507.5" width="120" height="35" as="geometry" />
        </mxCell>
        <mxCell id="5tydn42d7HWGj1WHtkxC-10" value="" style="rounded=0;whiteSpace=wrap;html=1;" vertex="1" parent="1">
          <mxGeometry x="432" y="465" width="200" height="225" as="geometry" />
        </mxCell>
        <mxCell id="5tydn42d7HWGj1WHtkxC-12" value="" style="rounded=0;whiteSpace=wrap;html=1;" vertex="1" parent="1">
          <mxGeometry x="432" y="165" width="200" height="220" as="geometry" />
        </mxCell>
        <mxCell id="5tydn42d7HWGj1WHtkxC-13" value="Canal Client/Server" style="text;html=1;strokeColor=none;fillColor=none;align=center;verticalAlign=middle;whiteSpace=wrap;rounded=0;fontSize=13;fontStyle=1" vertex="1" parent="1">
          <mxGeometry x="452" y="140" width="160" height="20" as="geometry" />
        </mxCell>
        <mxCell id="5tydn42d7HWGj1WHtkxC-14" value="" style="rounded=0;whiteSpace=wrap;html=1;" vertex="1" parent="1">
          <mxGeometry x="432" y="782.5" width="200" height="207.5" as="geometry" />
        </mxCell>
        <mxCell id="5tydn42d7HWGj1WHtkxC-19" value="SQL" style="shape=cylinder3;whiteSpace=wrap;html=1;boundedLbl=1;backgroundOutline=1;size=15;" vertex="1" parent="1">
          <mxGeometry x="-413" y="820" width="50" height="60" as="geometry" />
        </mxCell>
        <mxCell id="5tydn42d7HWGj1WHtkxC-20" value="DB2" style="shape=cylinder3;whiteSpace=wrap;html=1;boundedLbl=1;backgroundOutline=1;size=15;" vertex="1" parent="1">
          <mxGeometry x="-88" y="890" width="50" height="60" as="geometry" />
        </mxCell>
        <mxCell id="5tydn42d7HWGj1WHtkxC-21" style="edgeStyle=orthogonalEdgeStyle;rounded=0;orthogonalLoop=1;jettySize=auto;html=1;exitX=1;exitY=0.5;exitDx=0;exitDy=0;entryX=0;entryY=0.5;entryDx=0;entryDy=0;exitPerimeter=0;" edge="1" parent="1" source="5tydn42d7HWGj1WHtkxC-57" target="5tydn42d7HWGj1WHtkxC-24">
          <mxGeometry relative="1" as="geometry">
            <mxPoint x="22" y="439.9999999999999" as="sourcePoint" />
            <Array as="points">
              <mxPoint x="277" y="440" />
              <mxPoint x="277" y="525" />
            </Array>
          </mxGeometry>
        </mxCell>
        <mxCell id="5tydn42d7HWGj1WHtkxC-24" value="Produto&lt;br&gt;(telas personalizadas)" style="ellipse;whiteSpace=wrap;html=1;" vertex="1" parent="1">
          <mxGeometry x="487" y="480" width="90" height="90" as="geometry" />
        </mxCell>
        <mxCell id="5tydn42d7HWGj1WHtkxC-25" value="Produto&lt;br&gt;(telas e campos fixos)" style="ellipse;whiteSpace=wrap;html=1;" vertex="1" parent="1">
          <mxGeometry x="487" y="190" width="90" height="90" as="geometry" />
        </mxCell>
        <mxCell id="5tydn42d7HWGj1WHtkxC-26" style="edgeStyle=orthogonalEdgeStyle;rounded=0;orthogonalLoop=1;jettySize=auto;html=1;" edge="1" parent="1" source="5tydn42d7HWGj1WHtkxC-30" target="5tydn42d7HWGj1WHtkxC-82">
          <mxGeometry relative="1" as="geometry" />
        </mxCell>
        <mxCell id="5tydn42d7HWGj1WHtkxC-85" style="edgeStyle=orthogonalEdgeStyle;rounded=0;orthogonalLoop=1;jettySize=auto;html=1;entryX=0.5;entryY=0;entryDx=0;entryDy=0;" edge="1" parent="1" source="5tydn42d7HWGj1WHtkxC-30" target="5tydn42d7HWGj1WHtkxC-84">
          <mxGeometry relative="1" as="geometry" />
        </mxCell>
        <mxCell id="5tydn42d7HWGj1WHtkxC-30" value="Área Produtos" style="shape=umlActor;verticalLabelPosition=bottom;verticalAlign=top;html=1;outlineConnect=0;" vertex="1" parent="1">
          <mxGeometry x="-313" y="190" width="30" height="60" as="geometry" />
        </mxCell>
        <mxCell id="5tydn42d7HWGj1WHtkxC-33" value="" style="rounded=0;whiteSpace=wrap;html=1;" vertex="1" parent="1">
          <mxGeometry x="7" y="1040" width="240" height="110" as="geometry" />
        </mxCell>
        <mxCell id="5tydn42d7HWGj1WHtkxC-34" value="Órgãos regulatórios" style="text;html=1;strokeColor=none;fillColor=none;align=center;verticalAlign=middle;whiteSpace=wrap;rounded=0;fontSize=13;fontStyle=1" vertex="1" parent="1">
          <mxGeometry x="-3" y="1020" width="160" height="20" as="geometry" />
        </mxCell>
        <mxCell id="5tydn42d7HWGj1WHtkxC-36" style="edgeStyle=orthogonalEdgeStyle;rounded=0;orthogonalLoop=1;jettySize=auto;html=1;" edge="1" parent="1" source="5tydn42d7HWGj1WHtkxC-37" target="5tydn42d7HWGj1WHtkxC-63">
          <mxGeometry relative="1" as="geometry">
            <mxPoint x="547" y="615" as="targetPoint" />
            <Array as="points" />
          </mxGeometry>
        </mxCell>
        <mxCell id="5tydn42d7HWGj1WHtkxC-37" value="Cliente&lt;br&gt;" style="shape=umlActor;verticalLabelPosition=bottom;verticalAlign=top;html=1;outlineConnect=0;" vertex="1" parent="1">
          <mxGeometry x="707" y="605" width="30" height="60" as="geometry" />
        </mxCell>
        <mxCell id="5tydn42d7HWGj1WHtkxC-129" style="edgeStyle=orthogonalEdgeStyle;rounded=0;orthogonalLoop=1;jettySize=auto;html=1;" edge="1" parent="1" source="5tydn42d7HWGj1WHtkxC-43" target="5tydn42d7HWGj1WHtkxC-68">
          <mxGeometry relative="1" as="geometry" />
        </mxCell>
        <mxCell id="5tydn42d7HWGj1WHtkxC-43" value="Trade/Officer" style="shape=umlActor;verticalLabelPosition=bottom;verticalAlign=top;html=1;outlineConnect=0;" vertex="1" parent="1">
          <mxGeometry x="707" y="302.5" width="30" height="60" as="geometry" />
        </mxCell>
        <mxCell id="5tydn42d7HWGj1WHtkxC-48" value="&lt;h1&gt;Produto&lt;/h1&gt;&lt;p&gt;- Oferecido conforme sazonalidade&lt;/p&gt;&lt;p&gt;- Características próprias: qtd máx de contratações, período de validade de oferta e contratação pelo cliente&lt;/p&gt;&lt;p&gt;- 7 dias no máx. entre idealização e oferta ao cliente&lt;/p&gt;&lt;p&gt;- Sistema A: características como período de validade&lt;/p&gt;&lt;p&gt;- Sistema B: características como qtd disponível&lt;/p&gt;&lt;p&gt;- Algumas informações duplicadas nos dois sistemas&amp;nbsp;&lt;/p&gt;" style="text;html=1;strokeColor=none;fillColor=none;spacing=5;spacingTop=-20;whiteSpace=wrap;overflow=hidden;rounded=0;fontColor=#CCCCCC;" vertex="1" parent="1">
          <mxGeometry x="-750" y="900" width="300" height="230" as="geometry" />
        </mxCell>
        <mxCell id="5tydn42d7HWGj1WHtkxC-15" value="Canal Mobile" style="text;html=1;strokeColor=none;fillColor=none;align=center;verticalAlign=middle;whiteSpace=wrap;rounded=0;fontSize=13;fontStyle=1" vertex="1" parent="1">
          <mxGeometry x="452" y="762.5" width="160" height="20" as="geometry" />
        </mxCell>
        <mxCell id="5tydn42d7HWGj1WHtkxC-52" value="&lt;p style=&quot;line-height: 100%&quot;&gt;&lt;/p&gt;&lt;ul&gt;&lt;li&gt;&lt;span&gt;Sistema recente, tecnologias atualizadas&lt;/span&gt;&lt;/li&gt;&lt;li&gt;&lt;span&gt;Rotina Control+M diária para atualizar informações de produtos contratados ou cancelados&lt;/span&gt;&lt;/li&gt;&lt;/ul&gt;&lt;p&gt;&lt;/p&gt;" style="text;html=1;strokeColor=none;fillColor=none;spacing=0;spacingTop=0;whiteSpace=wrap;overflow=hidden;rounded=0;" vertex="1" parent="1">
          <mxGeometry x="-673" y="785" width="240" height="95" as="geometry" />
        </mxCell>
        <mxCell id="5tydn42d7HWGj1WHtkxC-55" value="&lt;h1&gt;Stored Procedure&lt;/h1&gt;&lt;p&gt;Procedimento SQL salvo e reutilizado, meio que um script que executa uma query a partir de parâmetros&amp;nbsp;&lt;/p&gt;" style="text;html=1;strokeColor=none;fillColor=none;spacing=5;spacingTop=-20;whiteSpace=wrap;overflow=hidden;rounded=0;fontColor=#CCCCCC;" vertex="1" parent="1">
          <mxGeometry x="-433" y="935" width="290" height="110" as="geometry" />
        </mxCell>
        <mxCell id="5tydn42d7HWGj1WHtkxC-127" style="edgeStyle=orthogonalEdgeStyle;rounded=0;orthogonalLoop=1;jettySize=auto;html=1;" edge="1" parent="1" source="5tydn42d7HWGj1WHtkxC-56" target="5tydn42d7HWGj1WHtkxC-25">
          <mxGeometry relative="1" as="geometry">
            <Array as="points">
              <mxPoint x="-433" y="300" />
              <mxPoint x="397" y="300" />
              <mxPoint x="397" y="235" />
            </Array>
          </mxGeometry>
        </mxCell>
        <mxCell id="5tydn42d7HWGj1WHtkxC-131" style="edgeStyle=orthogonalEdgeStyle;shape=flexArrow;rounded=0;orthogonalLoop=1;jettySize=auto;html=1;strokeColor=#B3B3B3;" edge="1" parent="1" source="5tydn42d7HWGj1WHtkxC-56" target="5tydn42d7HWGj1WHtkxC-48">
          <mxGeometry relative="1" as="geometry">
            <Array as="points">
              <mxPoint x="-430" y="490" />
              <mxPoint x="-723" y="490" />
            </Array>
          </mxGeometry>
        </mxCell>
        <mxCell id="5tydn42d7HWGj1WHtkxC-56" value="Produto&lt;br&gt;(valid., info, caract. negoc.)" style="shape=cylinder3;whiteSpace=wrap;html=1;boundedLbl=1;backgroundOutline=1;size=15;" vertex="1" parent="1">
          <mxGeometry x="-468" y="390" width="75" height="110" as="geometry" />
        </mxCell>
        <mxCell id="5tydn42d7HWGj1WHtkxC-57" value="Produto&lt;br&gt;(qtd, info, caract. negoc.)" style="shape=cylinder3;whiteSpace=wrap;html=1;boundedLbl=1;backgroundOutline=1;size=15;" vertex="1" parent="1">
          <mxGeometry x="157" y="390" width="60" height="100" as="geometry" />
        </mxCell>
        <mxCell id="5tydn42d7HWGj1WHtkxC-59" value="Valida&amp;nbsp;dados cliente" style="rounded=0;whiteSpace=wrap;html=1;" vertex="1" parent="1">
          <mxGeometry x="-280.5" y="557.5" width="95" height="30" as="geometry" />
        </mxCell>
        <mxCell id="5tydn42d7HWGj1WHtkxC-60" value="" style="endArrow=classic;startArrow=classic;html=1;exitX=1;exitY=0.5;exitDx=0;exitDy=0;" edge="1" parent="1" source="5tydn42d7HWGj1WHtkxC-76" target="5tydn42d7HWGj1WHtkxC-59">
          <mxGeometry width="50" height="50" relative="1" as="geometry">
            <mxPoint x="-148" y="625" as="sourcePoint" />
            <mxPoint x="37" y="590" as="targetPoint" />
          </mxGeometry>
        </mxCell>
        <mxCell id="5tydn42d7HWGj1WHtkxC-74" style="edgeStyle=orthogonalEdgeStyle;rounded=0;orthogonalLoop=1;jettySize=auto;html=1;entryX=0.5;entryY=0;entryDx=0;entryDy=0;" edge="1" parent="1" source="5tydn42d7HWGj1WHtkxC-61" target="5tydn42d7HWGj1WHtkxC-78">
          <mxGeometry relative="1" as="geometry" />
        </mxCell>
        <mxCell id="5tydn42d7HWGj1WHtkxC-61" value="Valida dados &lt;br&gt;do cliente e da contração/cancelamento" style="rounded=0;whiteSpace=wrap;html=1;" vertex="1" parent="1">
          <mxGeometry x="55.75" y="547.5" width="172.5" height="50" as="geometry" />
        </mxCell>
        <mxCell id="5tydn42d7HWGj1WHtkxC-62" value="" style="endArrow=classic;startArrow=classic;html=1;" edge="1" parent="1" source="5tydn42d7HWGj1WHtkxC-61" target="5tydn42d7HWGj1WHtkxC-59">
          <mxGeometry width="50" height="50" relative="1" as="geometry">
            <mxPoint x="-13" y="640" as="sourcePoint" />
            <mxPoint x="37" y="590" as="targetPoint" />
          </mxGeometry>
        </mxCell>
        <mxCell id="5tydn42d7HWGj1WHtkxC-88" style="edgeStyle=orthogonalEdgeStyle;rounded=0;orthogonalLoop=1;jettySize=auto;html=1;" edge="1" parent="1" source="5tydn42d7HWGj1WHtkxC-63" target="5tydn42d7HWGj1WHtkxC-61">
          <mxGeometry relative="1" as="geometry">
            <Array as="points">
              <mxPoint x="347" y="635" />
              <mxPoint x="347" y="573" />
            </Array>
          </mxGeometry>
        </mxCell>
        <mxCell id="5tydn42d7HWGj1WHtkxC-63" value="Contratação / Cancelamento" style="rounded=0;whiteSpace=wrap;html=1;" vertex="1" parent="1">
          <mxGeometry x="447" y="605" width="170" height="60" as="geometry" />
        </mxCell>
        <mxCell id="5tydn42d7HWGj1WHtkxC-67" value="" style="endArrow=classic;startArrow=classic;html=1;" edge="1" parent="1" source="5tydn42d7HWGj1WHtkxC-37" target="5tydn42d7HWGj1WHtkxC-43">
          <mxGeometry width="50" height="50" relative="1" as="geometry">
            <mxPoint x="1022" y="840" as="sourcePoint" />
            <mxPoint x="1052" y="640" as="targetPoint" />
          </mxGeometry>
        </mxCell>
        <mxCell id="5tydn42d7HWGj1WHtkxC-89" style="edgeStyle=orthogonalEdgeStyle;rounded=0;orthogonalLoop=1;jettySize=auto;html=1;entryX=1;entryY=0.5;entryDx=0;entryDy=0;" edge="1" parent="1" source="5tydn42d7HWGj1WHtkxC-68" target="5tydn42d7HWGj1WHtkxC-61">
          <mxGeometry relative="1" as="geometry">
            <Array as="points">
              <mxPoint x="347" y="333" />
              <mxPoint x="347" y="573" />
            </Array>
          </mxGeometry>
        </mxCell>
        <mxCell id="5tydn42d7HWGj1WHtkxC-68" value="Contratação / Cancelamento" style="rounded=0;whiteSpace=wrap;html=1;" vertex="1" parent="1">
          <mxGeometry x="447" y="302.5" width="170" height="60" as="geometry" />
        </mxCell>
        <mxCell id="5tydn42d7HWGj1WHtkxC-98" style="edgeStyle=orthogonalEdgeStyle;rounded=0;orthogonalLoop=1;jettySize=auto;html=1;exitX=0.5;exitY=1;exitDx=0;exitDy=0;exitPerimeter=0;" edge="1" parent="1" source="5tydn42d7HWGj1WHtkxC-73" target="5tydn42d7HWGj1WHtkxC-97">
          <mxGeometry relative="1" as="geometry">
            <Array as="points">
              <mxPoint x="142" y="795" />
              <mxPoint x="142" y="795" />
            </Array>
          </mxGeometry>
        </mxCell>
        <mxCell id="5tydn42d7HWGj1WHtkxC-73" value="Contratação/&lt;br&gt;Cancelamento" style="shape=cylinder3;whiteSpace=wrap;html=1;boundedLbl=1;backgroundOutline=1;size=15;" vertex="1" parent="1">
          <mxGeometry x="102" y="705" width="80" height="80" as="geometry" />
        </mxCell>
        <mxCell id="5tydn42d7HWGj1WHtkxC-75" value="Cadastro Clientes" style="shape=cylinder3;whiteSpace=wrap;html=1;boundedLbl=1;backgroundOutline=1;size=15;" vertex="1" parent="1">
          <mxGeometry x="-638" y="532.5" width="60" height="80" as="geometry" />
        </mxCell>
        <mxCell id="5tydn42d7HWGj1WHtkxC-132" style="edgeStyle=orthogonalEdgeStyle;shape=flexArrow;rounded=0;orthogonalLoop=1;jettySize=auto;html=1;strokeColor=#B3B3B3;fontColor=#CCCCCC;exitX=0.75;exitY=1;exitDx=0;exitDy=0;" edge="1" parent="1" source="5tydn42d7HWGj1WHtkxC-76" target="5tydn42d7HWGj1WHtkxC-55">
          <mxGeometry relative="1" as="geometry">
            <Array as="points">
              <mxPoint x="-418" y="630" />
              <mxPoint x="-350" y="630" />
            </Array>
          </mxGeometry>
        </mxCell>
        <mxCell id="5tydn42d7HWGj1WHtkxC-76" value="Stored Procedure" style="rounded=0;whiteSpace=wrap;html=1;" vertex="1" parent="1">
          <mxGeometry x="-493" y="555" width="100" height="35" as="geometry" />
        </mxCell>
        <mxCell id="5tydn42d7HWGj1WHtkxC-95" style="edgeStyle=orthogonalEdgeStyle;rounded=0;orthogonalLoop=1;jettySize=auto;html=1;" edge="1" parent="1" source="5tydn42d7HWGj1WHtkxC-77" target="5tydn42d7HWGj1WHtkxC-94">
          <mxGeometry relative="1" as="geometry">
            <Array as="points">
              <mxPoint x="-603" y="745" />
            </Array>
          </mxGeometry>
        </mxCell>
        <mxCell id="5tydn42d7HWGj1WHtkxC-77" value="Rotina Control+M" style="rounded=0;whiteSpace=wrap;html=1;" vertex="1" parent="1">
          <mxGeometry x="-503" y="727.5" width="120" height="35" as="geometry" />
        </mxCell>
        <mxCell id="5tydn42d7HWGj1WHtkxC-80" style="edgeStyle=orthogonalEdgeStyle;rounded=0;orthogonalLoop=1;jettySize=auto;html=1;" edge="1" parent="1" source="5tydn42d7HWGj1WHtkxC-78" target="5tydn42d7HWGj1WHtkxC-73">
          <mxGeometry relative="1" as="geometry" />
        </mxCell>
        <mxCell id="5tydn42d7HWGj1WHtkxC-78" value="Grava Contrat./cancel." style="rounded=0;whiteSpace=wrap;html=1;" vertex="1" parent="1">
          <mxGeometry x="57" y="645" width="170" height="30" as="geometry" />
        </mxCell>
        <mxCell id="5tydn42d7HWGj1WHtkxC-83" style="edgeStyle=orthogonalEdgeStyle;rounded=0;orthogonalLoop=1;jettySize=auto;html=1;entryX=0;entryY=0.5;entryDx=0;entryDy=0;entryPerimeter=0;" edge="1" parent="1" source="5tydn42d7HWGj1WHtkxC-82" target="5tydn42d7HWGj1WHtkxC-56">
          <mxGeometry relative="1" as="geometry" />
        </mxCell>
        <mxCell id="5tydn42d7HWGj1WHtkxC-82" value="Cadastro Produto e caract. negociação" style="rounded=0;whiteSpace=wrap;html=1;strokeColor=#000000;" vertex="1" parent="1">
          <mxGeometry x="-648" y="385" width="120" height="60" as="geometry" />
        </mxCell>
        <mxCell id="5tydn42d7HWGj1WHtkxC-86" style="edgeStyle=orthogonalEdgeStyle;rounded=0;orthogonalLoop=1;jettySize=auto;html=1;" edge="1" parent="1" source="5tydn42d7HWGj1WHtkxC-84" target="5tydn42d7HWGj1WHtkxC-57">
          <mxGeometry relative="1" as="geometry">
            <Array as="points" />
          </mxGeometry>
        </mxCell>
        <mxCell id="5tydn42d7HWGj1WHtkxC-84" value="Cadastro Produto e caract. negociação" style="rounded=0;whiteSpace=wrap;html=1;strokeColor=#000000;" vertex="1" parent="1">
          <mxGeometry x="-78" y="385" width="120" height="60" as="geometry" />
        </mxCell>
        <mxCell id="5tydn42d7HWGj1WHtkxC-91" value="" style="endArrow=classic;startArrow=classic;html=1;entryX=0;entryY=0.5;entryDx=0;entryDy=0;exitX=1;exitY=0.5;exitDx=0;exitDy=0;exitPerimeter=0;" edge="1" parent="1" source="5tydn42d7HWGj1WHtkxC-75" target="5tydn42d7HWGj1WHtkxC-76">
          <mxGeometry width="50" height="50" relative="1" as="geometry">
            <mxPoint x="-258" y="750" as="sourcePoint" />
            <mxPoint x="-208" y="700" as="targetPoint" />
          </mxGeometry>
        </mxCell>
        <mxCell id="5tydn42d7HWGj1WHtkxC-96" style="edgeStyle=orthogonalEdgeStyle;rounded=0;orthogonalLoop=1;jettySize=auto;html=1;entryX=0.5;entryY=1;entryDx=0;entryDy=0;entryPerimeter=0;" edge="1" parent="1" source="5tydn42d7HWGj1WHtkxC-94" target="5tydn42d7HWGj1WHtkxC-75">
          <mxGeometry relative="1" as="geometry">
            <Array as="points">
              <mxPoint x="-608" y="636" />
              <mxPoint x="-608" y="636" />
            </Array>
          </mxGeometry>
        </mxCell>
        <mxCell id="5tydn42d7HWGj1WHtkxC-94" value="Atualiza contrat. /cancelam." style="rounded=0;whiteSpace=wrap;html=1;" vertex="1" parent="1">
          <mxGeometry x="-638" y="660" width="170" height="30" as="geometry" />
        </mxCell>
        <mxCell id="5tydn42d7HWGj1WHtkxC-100" style="edgeStyle=orthogonalEdgeStyle;rounded=0;orthogonalLoop=1;jettySize=auto;html=1;" edge="1" parent="1" source="5tydn42d7HWGj1WHtkxC-97" target="5tydn42d7HWGj1WHtkxC-99">
          <mxGeometry relative="1" as="geometry" />
        </mxCell>
        <mxCell id="5tydn42d7HWGj1WHtkxC-97" value="Gera arquivo Contrat./cancel." style="rounded=0;whiteSpace=wrap;html=1;" vertex="1" parent="1">
          <mxGeometry x="58.25" y="805" width="170" height="30" as="geometry" />
        </mxCell>
        <mxCell id="5tydn42d7HWGj1WHtkxC-134" style="edgeStyle=orthogonalEdgeStyle;rounded=0;orthogonalLoop=1;jettySize=auto;html=1;strokeColor=#000000;fontSize=13;fontColor=#CCCCCC;" edge="1" parent="1" source="5tydn42d7HWGj1WHtkxC-99" target="5tydn42d7HWGj1WHtkxC-101">
          <mxGeometry relative="1" as="geometry" />
        </mxCell>
        <mxCell id="5tydn42d7HWGj1WHtkxC-99" value="Arquivo contrat. / cancelam." style="ellipse;whiteSpace=wrap;html=1;aspect=fixed;" vertex="1" parent="1">
          <mxGeometry x="103.25" y="855" width="80" height="80" as="geometry" />
        </mxCell>
        <mxCell id="5tydn42d7HWGj1WHtkxC-101" value="Registra contrat. / cancelam." style="rounded=0;whiteSpace=wrap;html=1;" vertex="1" parent="1">
          <mxGeometry x="62.62" y="1080" width="161.25" height="60" as="geometry" />
        </mxCell>
        <mxCell id="5tydn42d7HWGj1WHtkxC-102" value="&lt;h1&gt;Requisitos&lt;/h1&gt;" style="text;html=1;strokeColor=none;fillColor=none;spacing=5;spacingTop=-20;whiteSpace=wrap;overflow=hidden;rounded=0;" vertex="1" parent="1">
          <mxGeometry x="-658" y="1259" width="140" height="40" as="geometry" />
        </mxCell>
        <mxCell id="5tydn42d7HWGj1WHtkxC-111" style="edgeStyle=orthogonalEdgeStyle;rounded=0;orthogonalLoop=1;jettySize=auto;html=1;entryX=0;entryY=0.5;entryDx=0;entryDy=0;" edge="1" parent="1" source="5tydn42d7HWGj1WHtkxC-104" target="5tydn42d7HWGj1WHtkxC-109">
          <mxGeometry relative="1" as="geometry">
            <Array as="points">
              <mxPoint x="-33" y="1390" />
              <mxPoint x="-33" y="1420" />
            </Array>
          </mxGeometry>
        </mxCell>
        <mxCell id="5tydn42d7HWGj1WHtkxC-104" value="&lt;span style=&quot;text-align: left&quot;&gt;Ofertar produtos de Renda Fixa e Renda Variável de forma parametrizada, dinâmica, ágil e fácil&lt;/span&gt;" style="rounded=0;whiteSpace=wrap;html=1;" vertex="1" parent="1">
          <mxGeometry x="-623" y="1370" width="520" height="40" as="geometry" />
        </mxCell>
        <mxCell id="5tydn42d7HWGj1WHtkxC-112" style="edgeStyle=orthogonalEdgeStyle;rounded=0;orthogonalLoop=1;jettySize=auto;html=1;" edge="1" parent="1" source="5tydn42d7HWGj1WHtkxC-105">
          <mxGeometry relative="1" as="geometry">
            <mxPoint x="27" y="1420" as="targetPoint" />
            <Array as="points">
              <mxPoint x="-33" y="1450" />
              <mxPoint x="-33" y="1420" />
            </Array>
          </mxGeometry>
        </mxCell>
        <mxCell id="5tydn42d7HWGj1WHtkxC-105" value="&lt;span style=&quot;text-align: left&quot;&gt;Disponibilizar as ofertas de novos produtos cadastrados em quaisquer canais do banco&lt;/span&gt;" style="rounded=0;whiteSpace=wrap;html=1;" vertex="1" parent="1">
          <mxGeometry x="-623" y="1430" width="520" height="40" as="geometry" />
        </mxCell>
        <mxCell id="5tydn42d7HWGj1WHtkxC-114" style="edgeStyle=orthogonalEdgeStyle;rounded=0;orthogonalLoop=1;jettySize=auto;html=1;entryX=0;entryY=0.5;entryDx=0;entryDy=0;" edge="1" parent="1" source="5tydn42d7HWGj1WHtkxC-106" target="5tydn42d7HWGj1WHtkxC-113">
          <mxGeometry relative="1" as="geometry" />
        </mxCell>
        <mxCell id="5tydn42d7HWGj1WHtkxC-106" value="Registro de logs de cadastro/alterações das ofertas de produtos cadastrados" style="rounded=0;whiteSpace=wrap;html=1;" vertex="1" parent="1">
          <mxGeometry x="-623" y="1490" width="520" height="40" as="geometry" />
        </mxCell>
        <mxCell id="5tydn42d7HWGj1WHtkxC-115" style="edgeStyle=orthogonalEdgeStyle;rounded=0;orthogonalLoop=1;jettySize=auto;html=1;entryX=0;entryY=0.5;entryDx=0;entryDy=0;" edge="1" parent="1" source="5tydn42d7HWGj1WHtkxC-107" target="5tydn42d7HWGj1WHtkxC-113">
          <mxGeometry relative="1" as="geometry" />
        </mxCell>
        <mxCell id="5tydn42d7HWGj1WHtkxC-107" value="Relatórios estatísticos sobre o comportamento dos clientes frente sua opção de contratação ou desistência de uma oferta de produtos" style="rounded=0;whiteSpace=wrap;html=1;" vertex="1" parent="1">
          <mxGeometry x="-623" y="1550" width="520" height="40" as="geometry" />
        </mxCell>
        <mxCell id="5tydn42d7HWGj1WHtkxC-116" style="edgeStyle=orthogonalEdgeStyle;rounded=0;orthogonalLoop=1;jettySize=auto;html=1;entryX=0;entryY=0.5;entryDx=0;entryDy=0;" edge="1" parent="1" source="5tydn42d7HWGj1WHtkxC-108" target="5tydn42d7HWGj1WHtkxC-113">
          <mxGeometry relative="1" as="geometry" />
        </mxCell>
        <mxCell id="5tydn42d7HWGj1WHtkxC-108" value="Estudos analíticos sobre cada oferta de produto para subsidiar a área de inteligência de mercado" style="rounded=0;whiteSpace=wrap;html=1;" vertex="1" parent="1">
          <mxGeometry x="-623" y="1610" width="520" height="40" as="geometry" />
        </mxCell>
        <mxCell id="5tydn42d7HWGj1WHtkxC-109" value="Desenho técnico de uma proposta de melhoria e evolução, considerando todo o contexto descrito, fluxo atuais, tecnologias e ferramentas disponívei no mercado" style="shape=process;whiteSpace=wrap;html=1;backgroundOutline=1;shadow=0;size=0;" vertex="1" parent="1">
          <mxGeometry x="27" y="1370" width="340" height="100" as="geometry" />
        </mxCell>
        <mxCell id="5tydn42d7HWGj1WHtkxC-110" value="&lt;h1&gt;Objetivos&lt;/h1&gt;" style="text;html=1;strokeColor=none;fillColor=none;spacing=5;spacingTop=-20;whiteSpace=wrap;overflow=hidden;rounded=0;" vertex="1" parent="1">
          <mxGeometry x="-38" y="1259" width="140" height="40" as="geometry" />
        </mxCell>
        <mxCell id="5tydn42d7HWGj1WHtkxC-113" value="Sugestão de tecnologias e ferramentas que possam ser aplicadas no contexto" style="shape=process;whiteSpace=wrap;html=1;backgroundOutline=1;size=0;" vertex="1" parent="1">
          <mxGeometry x="27" y="1490" width="340" height="160" as="geometry" />
        </mxCell>
        <mxCell id="5tydn42d7HWGj1WHtkxC-117" value="Canal Web" style="text;html=1;strokeColor=none;fillColor=none;align=center;verticalAlign=middle;whiteSpace=wrap;rounded=0;fontSize=13;fontStyle=1" vertex="1" parent="1">
          <mxGeometry x="452" y="445" width="160" height="20" as="geometry" />
        </mxCell>
        <mxCell id="5tydn42d7HWGj1WHtkxC-119" value="Gestão de quantidades" style="rounded=0;whiteSpace=wrap;html=1;" vertex="1" parent="1">
          <mxGeometry x="-78" y="495" width="120" height="60" as="geometry" />
        </mxCell>
        <mxCell id="5tydn42d7HWGj1WHtkxC-121" value="" style="endArrow=classic;startArrow=classic;html=1;" edge="1" parent="1" source="5tydn42d7HWGj1WHtkxC-119" target="5tydn42d7HWGj1WHtkxC-57">
          <mxGeometry width="50" height="50" relative="1" as="geometry">
            <mxPoint x="167" y="640" as="sourcePoint" />
            <mxPoint x="217" y="590" as="targetPoint" />
          </mxGeometry>
        </mxCell>
        <mxCell id="5tydn42d7HWGj1WHtkxC-122" value="&lt;meta charset=&quot;utf-8&quot;&gt;&lt;span style=&quot;color: rgb(0, 0, 0); font-family: helvetica; font-size: 12px; font-style: normal; font-weight: 400; letter-spacing: normal; text-align: left; text-indent: 0px; text-transform: none; word-spacing: 0px; background-color: rgb(248, 249, 250); display: inline; float: none;&quot;&gt;Servidor Websphere em backlevel&lt;/span&gt;" style="text;whiteSpace=wrap;html=1;" vertex="1" parent="1">
          <mxGeometry x="-293" y="665" width="120" height="30" as="geometry" />
        </mxCell>
        <mxCell id="5tydn42d7HWGj1WHtkxC-126" value="" style="endArrow=classic;startArrow=classic;html=1;" edge="1" parent="1" source="5tydn42d7HWGj1WHtkxC-77" target="5tydn42d7HWGj1WHtkxC-73">
          <mxGeometry width="50" height="50" relative="1" as="geometry">
            <mxPoint x="-383" y="722.5641025641025" as="sourcePoint" />
            <mxPoint x="102" y="743.2905982905977" as="targetPoint" />
          </mxGeometry>
        </mxCell>
        <mxCell id="5tydn42d7HWGj1WHtkxC-135" value="&lt;font color=&quot;#000000&quot;&gt;Problemas da solução atual&lt;/font&gt;" style="rounded=0;whiteSpace=wrap;html=1;shadow=0;strokeColor=#000000;fontSize=13;fontColor=#CCCCCC;" vertex="1" parent="1">
          <mxGeometry x="27" y="1310" width="340" height="30" as="geometry" />
        </mxCell>
      </root>
    </mxGraphModel>
  </diagram>
</mxfile>
